<svg xmlns="http://www.w3.org/2000/svg" width="256" height="256" viewBox="0 0 256 256">
  <defs>
    <linearGradient id="g" x1="0" y1="0" x2="1" y2="1">
      <stop offset="0%" stop-color="#667eea"/>
      <stop offset="100%" stop-color="#764ba2"/>
    </linearGradient>
  </defs>
  <rect width="256" height="256" rx="32" fill="url(#g)"/>
  <g fill="#fff" transform="translate(32 48)">
    <path d="M40 24h112a8 8 0 0 1 8 8v92a8 8 0 0 1-8 8H40a8 8 0 0 1-8-8V32a8 8 0 0 1 8-8zm8 24v60h96V48H48z"/>
    <circle cx="76" cy="78" r="8"/>
    <circle cx="108" cy="78" r="8"/>
    <rect x="64" y="60" width="56" height="10" rx="5"/>
  </g>
</svg>

